<?xml version="1.0" encoding="UTF-8"?><svg id="Layer_1" xmlns="http://www.w3.org/2000/svg" viewBox="0 0 300 247.29"><defs><style>.cls-1{fill:#f8cc38;stroke-width:0px;}</style></defs><path class="cls-1" d="M214.11,86.86c-.09.4-.12.47-.12.53-.27,6.55-.38,6.65-7.07,6.65-.28,0-.56-.02-.84,0-4.33.39-6.49-1.06-6.04-5.87.03-.34-.03-.68-.05-1.17h-9.07c20.89,31.41,41.71,62.72,62.69,94.27,2.9-2.75,5.63-5.32,8.33-7.93,2.21-2.14,4.37-4.33,6.57-6.49,2.05-2.02,2.95-2.02,5.05.06,3.38,3.35,6.74,6.72,10.11,10.08,2.13,2.12,2.29,2.8.07,4.78-7.59,6.81-14.96,13.93-23.02,20.14-17.94,13.81-37.76,24.22-59.46,30.9-10.27,3.16-20.72,5.48-31.35,7.06-12.07,1.8-24.19,2.4-36.34,1.93-16.28-.63-32.27-3.28-47.95-7.74-.26-.07-.53-.1-.93-.18-1.78,3.89-3.63,7.7-5.27,11.6-.79,1.87-1.78,2.18-3.56,1.42-11.02-4.7-22.05-9.36-33.1-13.99-1.71-.72-2.23-1.59-1.25-3.33.99-1.76,1.77-3.63,2.6-5.47.67-1.49,1.64-2.02,3.16-1.21.31.16.64.28.96.41q3.87,1.62,5.15-2.28c-6.67-3.98-13.38-7.8-19.91-11.93-11.51-7.27-21.96-15.89-31.55-25.56-2.54-2.56-2.54-2.89-.05-5.41,3.3-3.33,6.6-6.66,9.94-9.95,1.82-1.79,2.74-1.76,4.63-.05,5.32,4.83,10.63,9.68,16.08,14.64,4.88-6.86,9.66-13.55,14.41-20.26,11.79-16.65,23.58-33.29,35.33-49.96,3.98-5.64,3.85-6.09-1-11.13-5.34-5.54-10.61-11.15-15.9-16.74-1.49-1.57-1.37-2.18.54-3.96,7.97-7.45,15.93-14.92,23.9-22.38.4-.37.84-.71,1.15-.97-4.08-4.08-7.96-7.97-11.94-11.96-1.43,1.3-2.98,2.69-4.51,4.1-1.06.97-1.98,1.01-3.01-.15-1.3-1.46-2.71-2.84-4.15-4.16-1.05-.96-.91-1.75.02-2.63,1.69-1.58,3.36-3.16,5.68-5.35-1.89-1.6-3.63-2.88-5.15-4.38-7.01-6.94-13.94-13.97-20.95-20.91-1.2-1.19-1.26-2.15-.13-3.38,5.42-5.9,4.34-5.21,9.06-.54,7.06,6.99,14.07,14.04,21.06,21.09.68.68,1.14,1.58,1.72,2.41,2.14-1.92,3.78-3.32,5.34-4.81,1.1-1.05,2-1,3.01.12,1.17,1.29,2.43,2.52,3.69,3.72.88.84.96,1.62.15,2.53-1.38,1.57-2.75,3.15-4.06,4.67,4,3.99,7.95,7.92,12.02,11.98,3.22-2.95,6.63-6.01,9.94-9.19.46-.44.63-1.53.47-2.2-4.32-17.86,7.94-34.76,24.33-37.85,17.1-3.22,35.09,8.53,37.14,27.29.97,8.87-.83,14.6-6.83,22.98,2.62,2.62,5.45,5.12,7.87,7.97,2.96,3.5,6.39,4.78,10.98,4.45,5.64-.41,11.32-.1,17.32-.1,0-1.03-.03-1.97,0-2.92.1-2.28.96-3.06,3.21-3.15,2.28-.09,4.56-.24,6.84-.42,2.04-.16,3.68,1.17,3.83,3.26.08,1.03.01,2.06.01,3.22,2.74,0,5.24,0,7.75,0,22.11,0,44.23-.02,66.34.04,1.67,0,2.87-.45,4.04-1.65.86-.87,2.1-1.77,3.25-1.87,3.84-.35,4.68.59,4.68,4.46,0,7.49-.02,14.98,0,22.46,0,1.61-.08,3.24-1.88,3.8-1.75.55-3.78.86-5.03-.84-1.87-2.55-4.33-2.72-7.17-2.71-23.16.08-46.33.05-69.49.05-.76,0-1.51,0-2.32,0ZM240.91,189.43c-8.49-12.64-16.81-25.04-25.14-37.42-4.01-5.96-8.04-11.91-12.07-17.86-1.02-1.51-2.29-2.39-4.24-1.74-5.41,1.8-10.86,3.48-16.24,5.38-3.9,1.38-6.3,4.9-6.23,9.03.04,2.21.24,4.47.74,6.62,3.66,15.79,7.4,31.56,11.15,47.32.93,3.9,1.96,7.78,3.03,11.99,17.49-5.63,34.16-12.27,49-23.32ZM142.58,65.02c-.21.02-.42.04-.62.06-.42,1.23-.8,2.48-1.26,3.69-6.73,17.69-13.48,35.37-20.19,53.07-4.91,12.95-9.77,25.92-14.63,38.89-.39,1.05-.59,2.17-.89,3.28,3.46.72,5.8.11,7.93-2.71,7.22-9.55,17.21-13.24,28.88-12.18,8.89.81,15.72,5.64,21.24,12.45,1.16,1.44,2.34,2.86,3.5,4.29.23-.11.46-.21.69-.32-8.22-33.51-16.43-67.02-24.65-100.53ZM109.07,106.93c-.13-.12-.26-.24-.4-.36-2.42,1.14-4.97,2.07-7.21,3.49-2.06,1.32-4.21,2.87-5.59,4.83-15.72,22.16-31.31,44.41-46.91,66.65-2.02,2.88-3.97,5.82-6.01,8.81,7.95,5.46,16.06,10.05,24.78,13.51,3.21,1.27,3.37,1.12,4.66-2.18,9.99-25.54,20.01-51.08,29.97-76.63,2.34-6,4.47-12.08,6.7-18.12ZM99.62,176.53c-4.51,11.47-8.97,22.84-13.58,34.58,30.78,10.29,61.59,11.93,93.18,5.03-2.94-11.55-5.75-22.56-8.56-33.58-.22.04-.44.09-.66.13-.18.8-.38,1.6-.55,2.4-3.77,18.37-21.03,29.54-39.07,25.3-12.74-3-22.78-14.42-24-27.3q-.54-5.7-6.76-6.55ZM138.33,159.86c-11.35-.19-20.69,8.61-21.02,19.5-.36,11.75,9.25,20.63,19.58,20.89,11.65.28,21-8.57,21.1-19.97.1-12-9.54-20.75-19.66-20.41ZM139.86,9.59c-12.05-.09-21.97,9.51-22.06,21.37-.1,12.04,9.7,22.31,21.49,22.29,12.65-.02,21.63-9.63,22.15-20.84.55-11.92-9.22-23.06-21.57-22.82ZM177.02,128.57c8.66-.13,15.55-6.71,15.39-14.69-.17-8.32-7.33-14.88-16.13-14.77-8.39.1-14.97,6.84-14.85,15.19.12,7.91,7.21,14.39,15.58,14.26ZM92.62,73.45c-5.59.05-9.8,4.28-9.76,9.8.04,5.5,4.31,9.59,9.97,9.57,5.52-.03,9.83-4.34,9.8-9.8-.04-5.42-4.43-9.62-10.01-9.57ZM118.35,58.36c-1.57,4.47-3.09,8.8-4.59,13.14q-1.68,4.87,2.13,8.25c.73.65,1.52,1.23,2.24,1.9.96.9,1.71.87,2.25-.39,2.53-5.85,5.05-11.7,7.53-17.45-3.27-1.87-6.28-3.59-9.56-5.46Z"/><path class="cls-1" d="M149.33,31.5c-.03,5.21-4.33,9.46-9.63,9.51-5.13.05-9.65-4.46-9.61-9.6.04-5.25,4.54-9.65,9.8-9.58,5.27.07,9.47,4.37,9.44,9.67Z"/></svg>